<svg width="688" height="160" viewBox="0 0 688 160" fill="none" xmlns="http://www.w3.org/2000/svg">
<g clip-path="url(#clip0_1248_509)">
<path d="M0 115.482V32.4705H28.7692V44.4234H29.0531C29.2424 44.047 29.6209 43.4823 30.0941 42.8234C30.5673 42.1646 31.6083 41.0352 33.2171 39.4352C34.8259 37.8352 36.5293 36.3293 38.422 35.1058C40.3147 33.7881 42.6806 32.6587 45.6143 31.6234C48.548 30.5881 51.4817 30.0234 54.51 30.0234C57.5384 30.0234 60.756 30.494 63.7843 31.3411C66.8127 32.1881 69.0839 33.0352 70.5034 33.8823L72.7747 35.1999L60.756 59.4823C57.1598 56.4705 52.1442 54.9646 45.8036 54.9646C39.463 54.9646 39.3684 55.7176 36.9078 57.2234C34.4473 58.7293 32.6492 60.5176 31.6083 62.6823C30.5673 64.847 29.8102 66.6352 29.4316 68.2352C29.0531 69.7411 28.7692 70.9646 28.7692 71.8117V115.482H0Z" fill="#3B5CFF"/>
<path d="M152.74 77.929H92.2681C92.2681 83.7642 94.1608 88.0937 97.9462 90.9172C101.732 93.7407 105.896 95.1525 110.343 95.1525C114.791 95.1525 118.671 94.4937 121.416 93.2701C124.16 92.0466 127.189 89.5995 130.69 85.929L151.51 96.2819C142.803 110.776 128.419 117.929 108.261 117.929C88.1041 117.929 84.8865 113.694 75.8962 105.129C66.9058 96.5642 62.3633 86.2113 62.3633 74.1642C62.3633 62.1172 66.9058 51.6701 75.8962 43.1054C84.8865 34.4466 95.675 30.1172 108.261 30.1172C120.848 30.1172 132.204 33.8819 140.532 41.5054C148.86 49.129 153.024 59.9525 153.024 74.1642C153.024 88.376 153.024 77.3642 152.835 78.0231L152.74 77.929ZM93.0252 62.1172H124.728C124.066 57.7878 122.362 54.4937 119.618 52.1407C116.873 49.7878 113.277 48.6584 109.019 48.6584C104.76 48.6584 100.407 49.8819 97.6623 52.329C94.8232 54.776 93.3091 58.0701 93.1198 62.0231L93.0252 62.1172Z" fill="#3B5CFF"/>
<path d="M149.901 135.905L173.465 124.423C177.819 131.576 185.389 135.152 196.083 135.152C206.777 135.152 205.641 133.552 209.995 130.352C214.253 127.152 216.43 122.352 216.43 115.764V109.647C211.319 115.294 202.234 118.023 189.08 118.023C175.926 118.023 167.125 113.788 159.27 105.317C151.415 96.8466 147.535 86.4937 147.535 74.1642C147.535 61.8348 151.415 51.4819 159.27 42.9172C167.125 34.3525 176.967 30.1172 189.08 30.1172C201.193 30.1172 208.764 33.4113 215.957 39.9995H216.43V32.5642H245.199V117.835C245.199 131.294 240.656 141.741 231.666 149.082C222.676 156.423 210.846 160.094 196.083 160.094C172.235 160.094 156.809 152.094 149.806 136L149.901 135.905ZM183.875 60.0466C180.184 63.7172 178.292 68.4231 178.292 74.1642C178.292 79.9054 180.09 84.5172 183.591 88.1878C187.187 91.7642 191.919 93.6466 197.787 93.6466C203.654 93.6466 208.102 91.8584 211.698 88.1878C215.294 84.5172 217.187 79.9054 217.187 74.2584C217.187 68.6113 215.294 63.8113 211.603 60.1407C207.818 56.4701 203.275 54.5878 197.881 54.5878C192.487 54.5878 187.661 56.4701 183.97 60.1407L183.875 60.0466Z" fill="#3B5CFF"/>
<path d="M279.271 32.4707V72.0001C279.271 80.1883 280.501 86.0236 282.962 89.506C285.517 92.9883 289.681 94.6825 295.643 94.6825C301.605 94.6825 305.864 92.9883 308.324 89.506C310.785 86.0236 312.015 80.1883 312.015 72.0001V32.4707H340.784V78.8707C340.784 92.706 337.188 102.682 329.996 108.706C322.803 114.824 311.352 117.835 295.548 117.835C279.744 117.835 268.388 114.824 261.101 108.706C253.909 102.588 250.312 92.6119 250.312 78.8707V32.4707H279.082H279.271Z" fill="#3B5CFF"/>
<path d="M435.702 60.7999V69.2705C435.513 69.2705 435.323 69.3646 435.039 69.4587C433.62 69.8352 432.106 70.1176 430.497 70.494H415.45V73.1293H430.497C432.011 73.4117 433.431 73.7881 434.85 74.0705C435.134 74.0705 435.418 74.1646 435.702 74.2587V115.576H406.933V68.7058C406.933 64.3764 405.513 60.6117 402.769 57.4117C400.024 54.2117 396.428 52.5176 391.98 52.5176C387.532 52.5176 383.747 54.2117 380.151 57.5058C376.649 60.7999 374.851 64.5646 374.851 68.6117V115.482H346.082V32.4705H374.851V41.2234H375.135C382.611 33.7881 390.561 30.0234 399.078 30.0234C407.595 30.0234 407.311 30.5881 411.286 31.6234C415.355 32.7528 419.235 34.3529 423.021 36.6117C426.806 38.8705 429.834 42.0705 432.106 46.2117C434.472 50.3528 435.607 55.1528 435.607 60.7058L435.702 60.7999Z" fill="#3B5CFF"/>
<path d="M628.19 32.4711V78.8711C628.19 92.7064 624.594 102.589 617.402 108.706C610.21 114.824 598.759 117.836 582.955 117.836C567.15 117.836 555.794 114.824 548.507 108.706C541.315 102.589 537.719 92.6122 537.719 78.8711V72.9417H555.605V70.3064H537.719V32.377H566.488V71.9064C566.488 80.0946 567.718 85.9299 570.273 89.4122C572.828 92.8946 576.992 94.5887 582.955 94.5887C588.917 94.5887 593.175 92.8946 595.636 89.4122C598.096 85.9299 599.421 80.0946 599.421 71.9064V32.377H628.19V32.4711Z" fill="#3B5CFF"/>
<path d="M638.222 32.4702V1.59961H666.991V32.4702H684.499V54.3055H666.991V80.6584C666.991 88.282 669.168 92.1408 673.521 92.1408C677.874 92.1408 675.792 91.9526 676.928 91.482C678.158 91.0114 679.01 90.6349 679.672 90.1643L680.619 89.5055L687.811 112.658C681.66 116.141 674.562 117.835 666.707 117.835C658.852 117.835 656.581 116.894 652.701 115.011C648.821 113.129 645.887 110.588 643.805 107.388C641.818 104.188 640.398 100.894 639.547 97.3173C638.695 93.8349 638.222 90.0702 638.222 86.0231V54.2114H626.203V32.3761H638.222V32.4702Z" fill="#3B5CFF"/>
<path d="M485.671 116.894C492.674 115.294 498.731 111.717 503.746 106.164H504.125V115.482H532.515V73.5054C501.57 80.4701 492.768 88.0937 485.671 116.894ZM503.746 32.4701V40.376C499.014 35.7642 493.336 32.7525 486.901 31.1525C493.809 56.0937 503.273 63.2466 532.515 69.8348V32.4701H503.746ZM476.397 30.1172C464.378 30.1172 454.441 34.3525 446.586 42.9172C440.814 49.2231 437.217 56.4701 435.703 64.7525C435.419 66.2584 435.23 67.8584 435.041 69.4584C435.23 69.4584 435.419 69.3642 435.703 69.2701C463.242 62.776 472.233 55.1525 478.952 30.1172C478.1 30.1172 477.248 30.1172 476.397 30.1172ZM435.703 74.1642C435.419 74.1642 435.135 74.0701 434.852 73.976C434.852 77.3642 435.135 80.4701 435.703 83.4819C437.217 91.7642 440.908 99.0113 446.586 105.223C454.346 113.694 464.283 117.929 476.397 117.929C488.51 117.929 478.857 117.929 480.087 117.741C473.179 89.129 464.756 81.0348 435.703 74.1642Z" fill="#3B5CFF"/>
</g>
<defs>
<clipPath id="clip0_1248_509">
<rect width="688" height="160" fill="white"/>
</clipPath>
</defs>
</svg>
